<?xml version="1.0" encoding="utf-8"?>
<!-- Generator: Adobe Illustrator 18.1.1, SVG Export Plug-In . SVG Version: 6.00 Build 0)  -->
<!DOCTYPE svg PUBLIC "-//W3C//DTD SVG 1.1//EN" "http://www.w3.org/Graphics/SVG/1.1/DTD/svg11.dtd">
<svg version="1.1" id="Layer_2" xmlns="http://www.w3.org/2000/svg" xmlns:xlink="http://www.w3.org/1999/xlink" x="0px" y="0px"
	 viewBox="0 0 30 30" enable-background="new 0 0 30 30" xml:space="preserve">
<g>
	<path fill="#FFFFFF" d="M23.3,4.5H6.7c-1.2,0-2.2,1-2.2,2.1v16.7c0,1.2,1,2.1,2.2,2.1h16.5c1.2,0,2.2-1,2.2-2.1V6.6
		C25.5,5.4,24.5,4.5,23.3,4.5z M24,23.4c0,0.4-0.3,0.6-0.7,0.6H6.7C6.4,24,6,23.7,6,23.4V6.6C6,6.3,6.4,6,6.7,6h16.5
		C23.6,6,24,6.3,24,6.6V23.4z"/>
	<path fill="#FFFFFF" d="M7.1,12.8v0.8v0.7h2c0.1-0.3,0.2-0.5,0.3-0.7c0.1-0.3,0.3-0.5,0.5-0.8H7.1z"/>
	<path fill="#FFFFFF" d="M20.6,13.5c0.1,0.2,0.2,0.5,0.3,0.7h2v-0.7v-0.8h-2.8C20.3,13,20.5,13.3,20.6,13.5z"/>
	<path fill="#FFFFFF" d="M19.1,13.5c-0.2-0.3-0.4-0.5-0.7-0.8c-0.6-0.5-1.2-0.9-2-1.1c-0.1,0-0.1,0-0.2-0.1
		c-0.4-0.1-0.8-0.2-1.2-0.2c-1.3,0-2.5,0.5-3.4,1.3c-0.3,0.2-0.5,0.5-0.7,0.8c-0.2,0.2-0.3,0.5-0.5,0.7c-0.3,0.7-0.6,1.5-0.6,2.3
		c0,2.8,2.3,5.1,5.1,5.1s5.1-2.3,5.1-5.1c0-0.8-0.2-1.6-0.6-2.3C19.5,14,19.3,13.8,19.1,13.5z M15,20.2c-2,0-3.6-1.6-3.6-3.6
		c0-0.9,0.3-1.7,0.8-2.3c0.2-0.3,0.5-0.5,0.8-0.7c0.6-0.4,1.2-0.6,2-0.6c0.1,0,0.3,0,0.4,0c0.4,0,0.7,0.1,1,0.3
		c0.2,0.1,0.4,0.2,0.5,0.3c0.3,0.2,0.6,0.5,0.8,0.7c0.5,0.6,0.8,1.4,0.8,2.3C18.7,18.6,17,20.2,15,20.2z"/>
	<path fill="#FFFFFF" d="M22.9,11.6V7.2h-4.3v4.1v0.3H19H22.9z M20.1,8.7h1.3v1.3h-1.3V8.7z"/>
</g>
</svg>
