<?xml version="1.0" encoding="utf-8"?>
<!-- Generator: Adobe Illustrator 18.1.1, SVG Export Plug-In . SVG Version: 6.00 Build 0)  -->
<!DOCTYPE svg PUBLIC "-//W3C//DTD SVG 1.1//EN" "http://www.w3.org/Graphics/SVG/1.1/DTD/svg11.dtd">
<svg version="1.1" id="Layer_2" xmlns="http://www.w3.org/2000/svg" xmlns:xlink="http://www.w3.org/1999/xlink" x="0px" y="0px"
	 viewBox="0 0 30 30" enable-background="new 0 0 30 30" xml:space="preserve">
<path fill="#FFFFFF" d="M15,26.7c-0.3,0-0.5-0.1-0.7-0.4c-0.6-1.1-0.9-1.2-2.4-1.2H0.8c-0.4,0-0.8-0.3-0.8-0.8V4
	c0-0.4,0.3-0.8,0.8-0.8h10.1c1.5,0,2.7,0.4,3.5,1.3c0.2,0.3,0.5,0.5,0.6,0.8c0.2-0.3,0.4-0.6,0.6-0.8c0.9-0.9,2-1.3,3.5-1.3h10.1
	C29.6,3.3,30,3.6,30,4v20.4c0,0.4-0.3,0.8-0.8,0.8H18c-1.4,0-1.9,0.1-2.3,1.1C15.6,26.5,15.3,26.7,15,26.7C15,26.7,15,26.7,15,26.7z
	 M1.5,23.7H12c1.2,0,2.2,0.1,3,1c0.8-0.9,1.9-1,3-1h10.4V4.8h-9.3c-1.1,0-1.9,0.3-2.4,0.9c-0.9,0.9-0.9,2.3-0.9,2.5c0,0,0,0,0,0.1
	v12.2h-1.5V8.2c0,0,0,0,0,0c0-0.2-0.1-1.6-1-2.5c-0.6-0.6-1.4-0.9-2.4-0.9H1.5V23.7z M26.6,16.2h-8.3v-1.5h8.3V16.2z M11.8,16.2H3.5
	v-1.5h8.3V16.2z M26.6,11.1h-8.3V9.6h8.3V11.1z M11.8,11.1H3.5V9.6h8.3V11.1z"/>
</svg>
