<?xml version="1.0" encoding="utf-8"?>
<!-- Generator: Adobe Illustrator 18.1.1, SVG Export Plug-In . SVG Version: 6.00 Build 0)  -->
<!DOCTYPE svg PUBLIC "-//W3C//DTD SVG 1.1//EN" "http://www.w3.org/Graphics/SVG/1.1/DTD/svg11.dtd">
<svg version="1.1" id="Layer_2" xmlns="http://www.w3.org/2000/svg" xmlns:xlink="http://www.w3.org/1999/xlink" x="0px" y="0px"
	 viewBox="0 0 30 30" enable-background="new 0 0 30 30" xml:space="preserve">
<path fill="#FFFFFF" d="M15,30C6.7,30,0,23.3,0,15S6.7,0,15,0s15,6.7,15,15S23.3,30,15,30z M15,1.5C7.6,1.5,1.5,7.5,1.5,15
	S7.6,28.5,15,28.5S28.5,22.4,28.5,15S22.4,1.5,15,1.5z M15,24.3c-5.1,0-9.3-4.2-9.3-9.3c0-5.1,4.2-9.3,9.3-9.3s9.3,4.2,9.3,9.3
	C24.3,20.1,20.1,24.3,15,24.3z M15,7.2c-4.3,0-7.8,3.5-7.8,7.8c0,4.3,3.5,7.8,7.8,7.8s7.8-3.5,7.8-7.8C22.8,10.7,19.3,7.2,15,7.2z
	 M15,18.6c-2,0-3.6-1.6-3.6-3.6c0-2,1.6-3.6,3.6-3.6s3.6,1.6,3.6,3.6C18.6,17,17,18.6,15,18.6z M15,12.9c-1.2,0-2.1,0.9-2.1,2.1
	c0,1.2,0.9,2.1,2.1,2.1s2.1-0.9,2.1-2.1C17.1,13.8,16.2,12.9,15,12.9z"/>
</svg>
