<?xml version="1.0" encoding="utf-8"?>
<!-- Generator: Adobe Illustrator 18.1.1, SVG Export Plug-In . SVG Version: 6.00 Build 0)  -->
<!DOCTYPE svg PUBLIC "-//W3C//DTD SVG 1.1//EN" "http://www.w3.org/Graphics/SVG/1.1/DTD/svg11.dtd">
<svg version="1.1" id="Layer_1" xmlns="http://www.w3.org/2000/svg" xmlns:xlink="http://www.w3.org/1999/xlink" x="0px" y="0px"
	 viewBox="0 0 20 20" enable-background="new 0 0 20 20" xml:space="preserve">
<path fill="#FFFFFF" d="M17.4,15.9L14,12.5c0.7-1,1.1-2.2,1.1-3.5c0-3.4-2.8-6.2-6.2-6.2C5.4,2.7,2.6,5.5,2.6,9s2.8,6.2,6.2,6.2
	c1.4,0,2.7-0.5,3.8-1.3l3.3,3.3L17.4,15.9z M4.6,9c0-2.3,1.9-4.2,4.2-4.2c2.3,0,4.2,1.9,4.2,4.2s-1.9,4.2-4.2,4.2
	C6.5,13.2,4.6,11.3,4.6,9z"/>
</svg>
