<?xml version="1.0" encoding="utf-8"?>
<!-- Generator: Adobe Illustrator 18.1.1, SVG Export Plug-In . SVG Version: 6.00 Build 0)  -->
<!DOCTYPE svg PUBLIC "-//W3C//DTD SVG 1.1//EN" "http://www.w3.org/Graphics/SVG/1.1/DTD/svg11.dtd">
<svg version="1.1" id="Layer_2" xmlns="http://www.w3.org/2000/svg" xmlns:xlink="http://www.w3.org/1999/xlink" x="0px" y="0px"
	 viewBox="0 0 30 30" enable-background="new 0 0 30 30" xml:space="preserve">
<path fill="#FFFFFF" d="M26,27.9H4.1V6.3h3.7V4.8h3.9C12,3.3,13.4,2.1,15,2.1s3,1.1,3.3,2.7h3.9v1.5H26V27.9z M5.6,26.4h18.9V7.8
	h-2.2v2.6H7.8V7.8H5.6V26.4z M9.3,9h11.5V6.3H17V5.5c0-1.1-0.9-1.9-1.9-1.9s-1.9,0.9-1.9,1.9v0.8H9.3V9z M21.5,20.3h-13v-1.5h13
	V20.3z M21.5,15.7h-13v-1.5h13V15.7z"/>
</svg>
