<?xml version="1.0" encoding="utf-8"?>
<!-- Generator: Adobe Illustrator 18.1.1, SVG Export Plug-In . SVG Version: 6.00 Build 0)  -->
<!DOCTYPE svg PUBLIC "-//W3C//DTD SVG 1.1//EN" "http://www.w3.org/Graphics/SVG/1.1/DTD/svg11.dtd">
<svg version="1.1" id="Layer_2" xmlns="http://www.w3.org/2000/svg" xmlns:xlink="http://www.w3.org/1999/xlink" x="0px" y="0px"
	 viewBox="0 0 30 30" enable-background="new 0 0 30 30" xml:space="preserve">
<path fill="#FFFFFF" d="M26.6,22.5c-2.2-3.7-4.7-4.7-6.5-5.5c-0.3-0.1-0.6-0.2-0.8-0.4c-0.6-0.3-0.9-0.6-1-0.8
	c-0.1-0.3,0.2-0.8,0.4-1.1c1.9-2.4,2.3-4.8,2.3-6.5c0-4.1-2.4-6.7-6.1-6.7c-3.7,0-6.1,2.6-6.1,6.7c0,1.6,0.4,4.1,2.3,6.5
	c0.2,0.3,0.5,0.7,0.4,1.1c-0.1,0.3-0.4,0.6-1,0.8c-0.3,0.1-0.5,0.2-0.8,0.4c-1.8,0.8-4.3,1.8-6.5,5.5c-0.9,1.4-1.2,3.9-1.2,5.3v0.8
	h25.8v-0.8C27.9,26.4,27.5,23.9,26.6,22.5z M3.7,27c0.1-1.2,0.4-2.8,1-3.7c1.9-3.2,4.1-4.2,5.8-4.9c0.3-0.1,0.6-0.3,0.9-0.4
	c1-0.5,1.6-1.1,1.8-1.9c0.2-0.7-0.1-1.5-0.7-2.3c-1.6-2-2-4.2-2-5.6C10.4,5.7,11.6,3,15,3c3.4,0,4.6,2.7,4.6,5.2
	c0,1.4-0.3,3.5-2,5.6c-0.7,0.8-0.9,1.6-0.7,2.3c0.2,0.8,0.8,1.4,1.8,1.9c0.3,0.1,0.6,0.3,0.9,0.4c1.7,0.7,3.9,1.6,5.8,4.9
	c0.5,0.9,0.9,2.5,1,3.7H3.7z"/>
</svg>
