<?xml version="1.0" encoding="utf-8"?>
<!-- Generator: Adobe Illustrator 18.1.1, SVG Export Plug-In . SVG Version: 6.00 Build 0)  -->
<!DOCTYPE svg PUBLIC "-//W3C//DTD SVG 1.1//EN" "http://www.w3.org/Graphics/SVG/1.1/DTD/svg11.dtd">
<svg version="1.1" id="Layer_2" xmlns="http://www.w3.org/2000/svg" xmlns:xlink="http://www.w3.org/1999/xlink" x="0px" y="0px"
	 viewBox="0 0 30 30" enable-background="new 0 0 30 30" xml:space="preserve">
<path fill="#FFFFFF" d="M23.9-0.1H6.1C3-0.1,0.5,2.5,0.5,5.7v6.1v12.3C0.5,27.4,3,30,6.1,30h17.8c3.1,0,5.6-2.6,5.6-5.8V11.9V5.7
	C29.5,2.5,27-0.1,23.9-0.1z M25.5,3.4l0.6,0v0.7v4.4l-4.9,0l0-5.1L25.5,3.4z M10.9,11.9c0.9-1.3,2.4-2.2,4.1-2.2s3.2,0.9,4.1,2.2
	c0.6,0.9,1,1.9,1,3.1c0,2.9-2.3,5.3-5.1,5.3c-2.8,0-5.1-2.4-5.1-5.3C9.9,13.8,10.3,12.7,10.9,11.9z M26.7,24.2
	c0,1.6-1.2,2.9-2.8,2.9H6.1c-1.5,0-2.8-1.3-2.8-2.9V11.9h4.3c-0.4,1-0.6,2-0.6,3.1c0,4.5,3.6,8.2,7.9,8.2c4.4,0,7.9-3.7,7.9-8.2
	c0-1.1-0.2-2.1-0.6-3.1h4.3V24.2z"/>
</svg>
