<?xml version="1.0" encoding="utf-8"?>
<!-- Generator: Adobe Illustrator 18.1.1, SVG Export Plug-In . SVG Version: 6.00 Build 0)  -->
<!DOCTYPE svg PUBLIC "-//W3C//DTD SVG 1.1//EN" "http://www.w3.org/Graphics/SVG/1.1/DTD/svg11.dtd">
<svg version="1.1" id="Layer_2" xmlns="http://www.w3.org/2000/svg" xmlns:xlink="http://www.w3.org/1999/xlink" x="0px" y="0px"
	 viewBox="0 0 30 30" enable-background="new 0 0 30 30" xml:space="preserve">
<g>
	<path fill="#FFFFFF" d="M21.2,6.9c-1.7-1.8-3.8-2.7-6.2-2.7s-4.5,1-6.2,2.7c-1.7,1.8-2.5,4-2.4,6.2c0.2,3.1,1.5,4.7,2.7,6.1
		c1.1,1.3,2.1,2.5,2.1,4.8h1.5c0-2.8-1.2-4.3-2.4-5.7c-1.1-1.4-2.2-2.7-2.3-5.3c-0.1-1.8,0.6-3.7,2-5.1c1.4-1.4,3.2-2.2,5.1-2.2
		s3.7,0.8,5.1,2.2c1.4,1.4,2.1,3.3,2,5.1c-0.1,2.6-1.2,3.9-2.3,5.3c-1,1.2-2,2.4-2.3,4.4l1.5,0.2c0.3-1.6,1-2.5,2-3.7
		c1.2-1.4,2.5-3.1,2.7-6.1C23.7,10.9,22.8,8.6,21.2,6.9z"/>
	
		<rect x="14.5" y="21.1" transform="matrix(-0.2187 -0.9758 0.9758 -0.2187 -6.2121 45.971)" fill="#FFFFFF" width="1.5" height="8.6"/>
	
		<rect x="14.5" y="26" transform="matrix(-0.2187 -0.9758 0.9758 -0.2187 -9.3668 49.683)" fill="#FFFFFF" width="1.5" height="5.2"/>
	<polygon fill="#FFFFFF" points="15.8,21.1 15.8,15.1 17.5,15.1 17.5,13.6 12.3,13.6 12.3,15.1 14.2,15.1 14.2,21.1 	"/>
	<rect x="20.4" y="1.8" transform="matrix(0.8384 0.5451 -0.5451 0.8384 5.2472 -11.002)" fill="#FFFFFF" width="1.5" height="3"/>
	<rect x="24.5" y="6.6" transform="matrix(0.422 0.9066 -0.9066 0.422 21.9389 -18.2543)" fill="#FFFFFF" width="1.5" height="3"/>
	<rect x="25.5" y="13" transform="matrix(0.1465 -0.9892 0.9892 0.1465 7.9968 38.3399)" fill="#FFFFFF" width="1.5" height="3"/>
	
		<rect x="22" y="19.5" transform="matrix(-0.7544 -0.6564 0.6564 -0.7544 28.0066 51.0773)" fill="#FFFFFF" width="3" height="1.5"/>
	
		<rect x="5.7" y="18.8" transform="matrix(-0.6562 -0.7545 0.7545 -0.6562 -4.6483 38.481)" fill="#FFFFFF" width="1.5" height="3"/>
	<rect x="2.3" y="13.8" transform="matrix(0.9892 -0.1465 0.1465 0.9892 -2.089 0.7112)" fill="#FFFFFF" width="3" height="1.5"/>
	<rect x="3.2" y="7.3" transform="matrix(0.9065 0.4222 -0.4222 0.9065 3.8515 -1.2349)" fill="#FFFFFF" width="3" height="1.5"/>
	<rect x="7.3" y="2.6" transform="matrix(0.5453 0.8382 -0.8382 0.5453 6.8179 -5.8759)" fill="#FFFFFF" width="3" height="1.5"/>
	<rect x="14.2" fill="#FFFFFF" width="1.5" height="3"/>
</g>
</svg>
