<?xml version="1.0" encoding="utf-8"?>
<!-- Generator: Adobe Illustrator 18.1.1, SVG Export Plug-In . SVG Version: 6.00 Build 0)  -->
<!DOCTYPE svg PUBLIC "-//W3C//DTD SVG 1.1//EN" "http://www.w3.org/Graphics/SVG/1.1/DTD/svg11.dtd">
<svg version="1.1" id="Layer_2" xmlns="http://www.w3.org/2000/svg" xmlns:xlink="http://www.w3.org/1999/xlink" x="0px" y="0px"
	 viewBox="0 0 30 30" enable-background="new 0 0 30 30" xml:space="preserve">
<g>
	<path fill="#EF7622" d="M23,8c-3.5,0-6.4,2.4-6.9,5.6h-2.3c0,0,0,0,0-0.1C13.3,10.4,10.4,8,7,8C5.1,8,3.5,8.7,2.2,9.8v-6H0v10.8v0
		c0,3.7,3.1,6.6,7,6.6c3.5,0,6.4-2.4,6.9-5.6h2.3c0,0,0,0,0,0.1c0.6,3.1,3.4,5.5,6.9,5.5c1.8,0,3.5-0.7,4.8-1.8v6.7H30V14.7
		c0,0,0,0,0-0.1C30,11,26.9,8,23,8z M11.6,15.6c-0.5,2-2.4,3.5-4.7,3.5c-2.6,0-4.8-2-4.8-4.5c0-2.5,2.1-4.5,4.8-4.5
		c2.2,0,4.1,1.4,4.6,3.4c0.1,0.4,0.2,0.8,0.2,1.1C11.7,15,11.7,15.3,11.6,15.6z M23,19.1c-2.2,0-4.1-1.5-4.6-3.4
		c-0.1-0.4-0.1-0.7-0.1-1.1c0-0.2,0-0.3,0-0.4c0,0,0,0,0-0.1c0-0.1,0-0.3,0.1-0.4c0,0,0-0.1,0-0.1c0.5-2,2.4-3.5,4.7-3.5
		c2.6,0,4.8,2,4.8,4.5C27.8,17.1,25.7,19.1,23,19.1z"/>
</g>
</svg>
