<?xml version="1.0" encoding="utf-8"?>
<!-- Generator: Adobe Illustrator 18.1.1, SVG Export Plug-In . SVG Version: 6.00 Build 0)  -->
<!DOCTYPE svg PUBLIC "-//W3C//DTD SVG 1.1//EN" "http://www.w3.org/Graphics/SVG/1.1/DTD/svg11.dtd">
<svg version="1.1" id="Layer_2" xmlns="http://www.w3.org/2000/svg" xmlns:xlink="http://www.w3.org/1999/xlink" x="0px" y="0px"
	 viewBox="0 0 30 30" enable-background="new 0 0 30 30" xml:space="preserve">
<path fill="#EF7622" d="M15,30C6.7,30,0,23.3,0,15S6.7,0,15,0s15,6.7,15,15S23.3,30,15,30z M14.2,24.5h1.5v4
	c6.9-0.4,12.4-5.9,12.7-12.8h-4.2v-1.5h4.2C28.1,7.4,22.6,1.9,15.8,1.5v3.8h-1.5V1.5C7.4,1.9,1.9,7.4,1.5,14.2h4.2v1.5H1.5
	c0.4,6.8,5.9,12.4,12.7,12.7V24.5z M9.4,21.7l2.7-8.8l8.6-4.8l-3.1,9.3L9.4,21.7z M13.4,14l-1.4,4.7l4.4-2.3l1.7-5L13.4,14z"/>
</svg>
