<?xml version="1.0" encoding="utf-8"?>
<!-- Generator: Adobe Illustrator 18.1.1, SVG Export Plug-In . SVG Version: 6.00 Build 0)  -->
<!DOCTYPE svg PUBLIC "-//W3C//DTD SVG 1.1//EN" "http://www.w3.org/Graphics/SVG/1.1/DTD/svg11.dtd">
<svg version="1.1" id="Layer_2" xmlns="http://www.w3.org/2000/svg" xmlns:xlink="http://www.w3.org/1999/xlink" x="0px" y="0px"
	 viewBox="0 0 30 30" enable-background="new 0 0 30 30" xml:space="preserve">
<path fill="#EF7622" d="M9.5,27.2c-3.5,0-6.7-1-9.4-2.8c0.5,0.1,1,0.1,1.5,0.1c2.9,0,5.5-1,7.6-2.6c-2.7,0-5-1.8-5.7-4.3
	c0.4,0.1,0.8,0.1,1.2,0.1c0.6,0,1.1-0.1,1.6-0.2c-2.8-0.6-4.9-3-4.9-6c0,0,0-0.1,0-0.1c0.8,0.5,1.8,0.7,2.8,0.8
	c-1.6-1.1-2.7-3-2.7-5.1c0-1.1,0.3-2.2,0.8-3.1c3,3.7,7.6,6.2,12.7,6.4c-0.1-0.4-0.2-0.9-0.2-1.4c0-3.4,2.7-6.1,6.1-6.1
	c1.8,0,3.4,0.7,4.5,1.9C26.7,4.5,28,4,29.2,3.3c-0.5,1.4-1.4,2.6-2.7,3.4c1.2-0.1,2.4-0.5,3.5-1C29.2,7,28.1,8,26.9,8.9
	c0,0.3,0,0.5,0,0.8C27,17.8,20.8,27.2,9.5,27.2"/>
</svg>
