<?xml version="1.0" encoding="utf-8"?>
<!-- Generator: Adobe Illustrator 18.1.1, SVG Export Plug-In . SVG Version: 6.00 Build 0)  -->
<!DOCTYPE svg PUBLIC "-//W3C//DTD SVG 1.1//EN" "http://www.w3.org/Graphics/SVG/1.1/DTD/svg11.dtd">
<svg version="1.1" id="Layer_2" xmlns="http://www.w3.org/2000/svg" xmlns:xlink="http://www.w3.org/1999/xlink" x="0px" y="0px"
	 viewBox="0 0 30 30" enable-background="new 0 0 30 30" xml:space="preserve">
<g>
	<g>
		<path fill="#EF7622" d="M16.1,13.5L16.1,13.5C16.1,13.4,16.1,13.5,16.1,13.5L16.1,13.5z M27.3-0.1H2.7c-1.2,0-2.1,1-2.1,2.2v25.7
			c0,1.2,1,2.2,2.1,2.2h24.7c1.2,0,2.1-1,2.1-2.2V2.1C29.5,0.9,28.5-0.1,27.3-0.1z M9.3,25.1H4.9V11.5h4.4V25.1z M7.1,9.7L7.1,9.7
			c-1.5,0-2.4-1-2.4-2.3C4.7,6,5.6,5,7.1,5c1.5,0,2.4,1,2.4,2.3C9.6,8.6,8.6,9.7,7.1,9.7z M25.1,25.1h-4.4v-7.3
			c0-1.8-0.6-3.1-2.2-3.1c-1.2,0-1.9,0.8-2.2,1.6c-0.1,0.3-0.1,0.7-0.1,1.1v7.6h-4.4c0,0,0.1-12.3,0-13.6h4.4v1.9
			c0.6-0.9,1.6-2.2,3.9-2.2c2.9,0,5,1.9,5,6.1V25.1z"/>
	</g>
</g>
</svg>
