<?xml version="1.0" encoding="utf-8"?>
<!-- Generator: Adobe Illustrator 18.1.1, SVG Export Plug-In . SVG Version: 6.00 Build 0)  -->
<!DOCTYPE svg PUBLIC "-//W3C//DTD SVG 1.1//EN" "http://www.w3.org/Graphics/SVG/1.1/DTD/svg11.dtd">
<svg version="1.1" id="Layer_2" xmlns="http://www.w3.org/2000/svg" xmlns:xlink="http://www.w3.org/1999/xlink" x="0px" y="0px"
	 viewBox="0 0 30 30" enable-background="new 0 0 30 30" xml:space="preserve">
<path fill="#EF7622" d="M15.3,29.9c-6.1,0-11-4.9-11-11c0-4.7,3-8.9,7.4-10.4L10,3.8l2.9-1.1L12,0.5L13.5,0l0.8,2.3l2.9-1.1
	l5.1,13.7L19.3,16l0.8,2.3l-1.4,0.5l-0.8-2.3l-2.9,1.1l-2.8-7.6c-3.8,1.3-6.4,4.9-6.4,9c0,5.2,4.3,9.5,9.5,9.5
	c3.6,0,6.8-2.1,8.5-5.2h-8.5v-1.5H26l-0.4,1C24,27.1,19.9,29.9,15.3,29.9z M11.9,4.7l4,10.9l4.3-1.6l-4-10.9L11.9,4.7z"/>
</svg>
