<?xml version="1.0" encoding="utf-8"?>
<!-- Generator: Adobe Illustrator 18.1.1, SVG Export Plug-In . SVG Version: 6.00 Build 0)  -->
<!DOCTYPE svg PUBLIC "-//W3C//DTD SVG 1.1//EN" "http://www.w3.org/Graphics/SVG/1.1/DTD/svg11.dtd">
<svg version="1.1" id="Layer_2" xmlns="http://www.w3.org/2000/svg" xmlns:xlink="http://www.w3.org/1999/xlink" x="0px" y="0px"
	 viewBox="0 0 25 25" enable-background="new 0 0 25 25" xml:space="preserve">
<path fill="#4A4A4A" d="M22.4,24.1H2.6V4.7H6V3.3h3.6c0.2-1.4,1.5-2.5,2.9-2.5s2.7,1.1,2.9,2.5H19v1.4h3.4V24.1z M3.6,23.1h17.7V5.7
	H19v2.4H6V5.7H3.6V23.1z M7,7.1h11V4.3h-3.5V3.8c0-1.1-0.9-2-2-2s-2,0.9-2,2v0.5H7V7.1z M18.5,17.2h-12v-1h12V17.2z M18.5,12.9h-12
	v-1h12V12.9z"/>
</svg>
