<?xml version="1.0" encoding="utf-8"?>
<!-- Generator: Adobe Illustrator 18.1.1, SVG Export Plug-In . SVG Version: 6.00 Build 0)  -->
<!DOCTYPE svg PUBLIC "-//W3C//DTD SVG 1.1//EN" "http://www.w3.org/Graphics/SVG/1.1/DTD/svg11.dtd">
<svg version="1.1" id="Layer_2" xmlns="http://www.w3.org/2000/svg" xmlns:xlink="http://www.w3.org/1999/xlink" x="0px" y="0px"
	 viewBox="0 0 25 25" enable-background="new 0 0 25 25" xml:space="preserve">
<g>
	<path fill="#4A4A4A" d="M19.2,6.7c-2.9,0-5.3,2-5.7,4.7h-1.9c0,0,0,0,0-0.1c-0.5-2.6-2.9-4.6-5.7-4.6c-1.5,0-2.9,0.6-4,1.5v-5H0v9
		v0c0,3,2.6,5.5,5.8,5.5c2.9,0,5.3-2,5.7-4.7h1.9c0,0,0,0,0,0c0.5,2.6,2.9,4.6,5.7,4.6c1.5,0,2.9-0.6,4-1.5v5.6H25v-9.6c0,0,0,0,0,0
		C25,9.1,22.4,6.7,19.2,6.7z M9.7,13c-0.4,1.7-2,3-3.9,3c-2.2,0-4-1.7-4-3.8c0-2.1,1.8-3.8,4-3.8c1.9,0,3.4,1.2,3.8,2.8
		c0.1,0.3,0.1,0.6,0.1,0.9C9.8,12.5,9.7,12.7,9.7,13z M19.2,15.9c-1.9,0-3.4-1.2-3.9-2.8c-0.1-0.3-0.1-0.6-0.1-0.9
		c0-0.1,0-0.3,0-0.4c0,0,0,0,0,0c0-0.1,0-0.2,0.1-0.3c0,0,0-0.1,0-0.1c0.4-1.7,2-2.9,3.9-2.9c2.2,0,4,1.7,4,3.8
		C23.2,14.3,21.4,15.9,19.2,15.9z"/>
</g>
</svg>
