<?xml version="1.0" encoding="utf-8"?>
<!-- Generator: Adobe Illustrator 18.1.1, SVG Export Plug-In . SVG Version: 6.00 Build 0)  -->
<!DOCTYPE svg PUBLIC "-//W3C//DTD SVG 1.1//EN" "http://www.w3.org/Graphics/SVG/1.1/DTD/svg11.dtd">
<svg version="1.1" id="Layer_2" xmlns="http://www.w3.org/2000/svg" xmlns:xlink="http://www.w3.org/1999/xlink" x="0px" y="0px"
	 viewBox="0 0 25 25" enable-background="new 0 0 25 25" xml:space="preserve">
<path fill="#4A4A4A" d="M19.9,0H5.1C2.5,0,0.4,2.2,0.4,4.8v5.1v10.2c0,2.7,2.1,4.8,4.7,4.8h14.8c2.6,0,4.7-2.2,4.7-4.8V9.9V4.8
	C24.6,2.2,22.5,0,19.9,0z M21.2,2.9l0.5,0v0.5v3.7l-4.1,0l0-4.2L21.2,2.9z M9.1,9.9c0.8-1.1,2-1.8,3.4-1.8s2.7,0.7,3.4,1.8
	c0.5,0.7,0.8,1.6,0.8,2.6c0,2.4-1.9,4.4-4.2,4.4c-2.3,0-4.2-2-4.2-4.4C8.3,11.5,8.6,10.7,9.1,9.9z M22.2,20.2c0,1.3-1,2.4-2.3,2.4
	H5.1c-1.3,0-2.3-1.1-2.3-2.4V9.9h3.6c-0.3,0.8-0.5,1.7-0.5,2.6c0,3.8,3,6.8,6.6,6.8c3.6,0,6.6-3.1,6.6-6.8c0-0.9-0.2-1.8-0.5-2.6
	h3.6V20.2z"/>
</svg>
