<?xml version="1.0" encoding="utf-8"?>
<!-- Generator: Adobe Illustrator 18.1.1, SVG Export Plug-In . SVG Version: 6.00 Build 0)  -->
<!DOCTYPE svg PUBLIC "-//W3C//DTD SVG 1.1//EN" "http://www.w3.org/Graphics/SVG/1.1/DTD/svg11.dtd">
<svg version="1.1" id="Layer_2" xmlns="http://www.w3.org/2000/svg" xmlns:xlink="http://www.w3.org/1999/xlink" x="0px" y="0px"
	 viewBox="0 0 25 25" enable-background="new 0 0 25 25" xml:space="preserve">
<path fill="#4A4A4A" d="M12.5,22c-0.2,0-0.3-0.1-0.4-0.3c-0.5-0.9-0.9-1-2-1H0.8c-0.3,0-0.5-0.2-0.5-0.5V3.5C0.3,3.2,0.5,3,0.8,3
	h8.3c1.2,0,2.1,0.4,2.8,1.1c0.3,0.3,0.4,0.5,0.6,0.8c0.1-0.3,0.3-0.6,0.6-0.8C13.7,3.3,14.7,3,15.9,3h8.3c0.3,0,0.5,0.2,0.5,0.5
	v16.7c0,0.3-0.2,0.5-0.5,0.5h-9.2c-1.2,0-1.6,0.1-2,1C12.8,21.9,12.7,22,12.5,22C12.5,22,12.5,22,12.5,22z M1.3,19.7H10
	c1,0,1.8,0.1,2.4,0.9c0.6-0.8,1.5-0.9,2.5-0.9h8.7V4h-7.8c-0.9,0-1.6,0.3-2.1,0.7C12.9,5.6,13,6.9,13,6.9h0c0,0,0,0,0,0v10h-1V6.8
	c0-0.2-0.1-1.3-0.8-2.1C10.7,4.2,10,4,9.1,4H1.3V19.7z M22,13.4h-6.9v-1H22V13.4z M9.9,13.4H3v-1h6.9V13.4z M22,9.2h-6.9v-1H22V9.2z
	 M9.9,9.2H3v-1h6.9V9.2z"/>
</svg>
