<?xml version="1.0" encoding="utf-8"?>
<!-- Generator: Adobe Illustrator 18.1.1, SVG Export Plug-In . SVG Version: 6.00 Build 0)  -->
<!DOCTYPE svg PUBLIC "-//W3C//DTD SVG 1.1//EN" "http://www.w3.org/Graphics/SVG/1.1/DTD/svg11.dtd">
<svg version="1.1" id="Layer_2" xmlns="http://www.w3.org/2000/svg" xmlns:xlink="http://www.w3.org/1999/xlink" x="0px" y="0px"
	 viewBox="0 0 25 25" enable-background="new 0 0 25 25" xml:space="preserve">
<path fill="#4A4A4A" d="M12.5,24.7c-6.7,0-12.2-5.5-12.2-12.2S5.8,0.3,12.5,0.3s12.2,5.5,12.2,12.2S19.2,24.7,12.5,24.7z M12,20.3h1
	v3.4c5.8-0.3,10.5-4.9,10.7-10.7h-3.6v-1h3.6C23.4,6.2,18.8,1.5,13,1.3v3.3h-1V1.3C6.2,1.5,1.5,6.2,1.3,12h3.6v1H1.3
	C1.5,18.8,6.2,23.5,12,23.7V20.3z M8.1,17.8l2.1-6.9l6.7-3.8l-2.5,7.3L8.1,17.8z M11.1,11.6l-1.3,4.2l3.9-2.1l1.5-4.5L11.1,11.6z"/>
</svg>
