<?xml version="1.0" encoding="utf-8"?>
<!-- Generator: Adobe Illustrator 18.1.1, SVG Export Plug-In . SVG Version: 6.00 Build 0)  -->
<!DOCTYPE svg PUBLIC "-//W3C//DTD SVG 1.1//EN" "http://www.w3.org/Graphics/SVG/1.1/DTD/svg11.dtd">
<svg version="1.1" id="Layer_2" xmlns="http://www.w3.org/2000/svg" xmlns:xlink="http://www.w3.org/1999/xlink" x="0px" y="0px"
	 viewBox="0 0 25 25" enable-background="new 0 0 25 25" xml:space="preserve">
<path fill="#4A4A4A" d="M21.5,18.3c-1.7-2.8-3.6-3.6-5-4.2c-0.2-0.1-0.5-0.2-0.7-0.3c-0.3-0.2-0.7-0.4-0.8-0.7
	c-0.1-0.3,0.2-0.6,0.4-0.9c1.5-1.8,1.8-3.7,1.8-5c0-3.1-1.8-5.1-4.6-5.1s-4.6,2-4.6,5.1c0,1.3,0.3,3.1,1.8,5
	c0.2,0.2,0.4,0.6,0.4,0.9c-0.1,0.3-0.5,0.6-0.8,0.7C9,13.9,8.8,14,8.5,14.1c-1.4,0.6-3.3,1.4-5,4.2c-0.7,1.1-1,3-1,4v0.5h19.8v-0.5
	C22.4,21.4,22.1,19.4,21.5,18.3z M3.6,21.9c0.1-1,0.3-2.3,0.8-3c1.5-2.5,3.2-3.3,4.5-3.8c0.2-0.1,0.5-0.2,0.7-0.3
	c0.8-0.4,1.2-0.8,1.3-1.4c0.1-0.5-0.1-1.1-0.6-1.7C9.1,10,8.9,8.3,8.9,7.2c0-2.5,1.4-4.1,3.6-4.1s3.6,1.6,3.6,4.1
	c0,1.1-0.3,2.7-1.6,4.4c-0.5,0.6-0.7,1.2-0.6,1.7c0.1,0.6,0.6,1,1.3,1.4c0.2,0.1,0.5,0.2,0.7,0.3c1.3,0.6,3,1.3,4.5,3.8
	c0.4,0.7,0.7,2.1,0.8,3H3.6z"/>
</svg>
