<?xml version="1.0" encoding="utf-8"?>
<!-- Generator: Adobe Illustrator 18.1.1, SVG Export Plug-In . SVG Version: 6.00 Build 0)  -->
<!DOCTYPE svg PUBLIC "-//W3C//DTD SVG 1.1//EN" "http://www.w3.org/Graphics/SVG/1.1/DTD/svg11.dtd">
<svg version="1.1" id="Layer_2" xmlns="http://www.w3.org/2000/svg" xmlns:xlink="http://www.w3.org/1999/xlink" x="0px" y="0px"
	 viewBox="0 0 25 25" enable-background="new 0 0 25 25" xml:space="preserve">
<g>
	<path fill="#4A4A4A" d="M17.5,5.7c-1.3-1.4-3.1-2.2-5-2.2s-3.7,0.8-5,2.2s-2,3.3-1.9,5.1c0.1,2.5,1.2,3.8,2.2,5
		c0.9,1.1,1.7,2.1,1.7,4h1c0-2.3-1-3.5-1.9-4.6c-0.9-1.1-1.8-2.2-1.9-4.4C6.5,9.2,7.1,7.6,8.2,6.4c1.1-1.2,2.7-1.9,4.3-1.9
		s3.1,0.7,4.3,1.9c1.1,1.2,1.8,2.8,1.7,4.3c-0.1,2.2-1,3.2-1.9,4.4c-0.8,1-1.6,2-1.9,3.5l1,0.2c0.2-1.3,0.9-2.1,1.6-3.1
		c1-1.2,2-2.5,2.2-5C19.5,9,18.8,7.2,17.5,5.7z"/>
	
		<rect x="12.2" y="17.4" transform="matrix(-0.2188 -0.9758 0.9758 -0.2188 -4.9121 37.9736)" fill="#4A4A4A" width="1" height="7.1"/>
	
		<rect x="12.2" y="21.4" transform="matrix(-0.2188 -0.9758 0.9758 -0.2188 -7.507 41.0269)" fill="#4A4A4A" width="1" height="4.3"/>
	<polygon fill="#4A4A4A" points="13,17.4 13,12.3 14.6,12.3 14.6,11.3 10.3,11.3 10.3,12.3 12,12.3 12,17.4 	"/>
	<rect x="17.1" y="1.5" transform="matrix(0.8383 0.5452 -0.5452 0.8383 4.3433 -9.1389)" fill="#4A4A4A" width="1" height="2.5"/>
	<rect x="20.5" y="5.4" transform="matrix(0.422 0.9066 -0.9066 0.422 18.1397 -15.1618)" fill="#4A4A4A" width="1" height="2.5"/>
	<rect x="21.2" y="10.7" transform="matrix(0.1465 -0.9892 0.9892 0.1465 6.7167 31.6976)" fill="#4A4A4A" width="1" height="2.5"/>
	
		<rect x="18.3" y="16.2" transform="matrix(-0.7545 -0.6563 0.6563 -0.7545 23.3244 42.1207)" fill="#4A4A4A" width="2.5" height="1"/>
	<rect x="5" y="15.4" transform="matrix(-0.6561 -0.7547 0.7547 -0.6561 -3.5597 31.7738)" fill="#4A4A4A" width="1" height="2.5"/>
	<rect x="2" y="11.5" transform="matrix(0.9892 -0.1465 0.1465 0.9892 -1.7161 0.6084)" fill="#4A4A4A" width="2.5" height="1"/>
	<rect x="2.8" y="6.1" transform="matrix(0.9066 0.422 -0.422 0.9066 3.1821 -1.0838)" fill="#4A4A4A" width="2.5" height="1"/>
	<rect x="6.2" y="2.3" transform="matrix(0.5453 0.8382 -0.8382 0.5453 5.682 -4.9688)" fill="#4A4A4A" width="2.5" height="1"/>
	<rect x="12" fill="#4A4A4A" width="1" height="2.5"/>
</g>
</svg>
