<?xml version="1.0" encoding="utf-8"?>
<!-- Generator: Adobe Illustrator 18.1.1, SVG Export Plug-In . SVG Version: 6.00 Build 0)  -->
<!DOCTYPE svg PUBLIC "-//W3C//DTD SVG 1.1//EN" "http://www.w3.org/Graphics/SVG/1.1/DTD/svg11.dtd">
<svg version="1.1" id="Layer_2" xmlns="http://www.w3.org/2000/svg" xmlns:xlink="http://www.w3.org/1999/xlink" x="0px" y="0px"
	 viewBox="0 0 25 25" enable-background="new 0 0 25 25" xml:space="preserve">
<path fill="#4A4A4A" d="M12.5,24.7c-5,0-9-4-9-9c0-3.9,2.5-7.3,6.2-8.5L8.3,3.3l2.4-0.9l-0.7-2l0.9-0.3l0.7,2L14,1.2l4.1,11.1
	l-2.4,0.9l0.7,2l-0.9,0.3l-0.7-2l-2.4,0.9l-2.3-6.3c-3.3,1.1-5.5,4.1-5.5,7.6c0,4.4,3.6,8,8,8c3.1,0,5.9-1.8,7.2-4.5h-7.2v-1h8.7
	l-0.2,0.7C19.6,22.3,16.3,24.7,12.5,24.7z M9.6,3.9l3.4,9.2l3.8-1.4l-3.4-9.2L9.6,3.9z"/>
</svg>
