<?xml version="1.0" encoding="utf-8"?>
<!-- Generator: Adobe Illustrator 18.1.1, SVG Export Plug-In . SVG Version: 6.00 Build 0)  -->
<!DOCTYPE svg PUBLIC "-//W3C//DTD SVG 1.1//EN" "http://www.w3.org/Graphics/SVG/1.1/DTD/svg11.dtd">
<svg version="1.1" id="Layer_2" xmlns="http://www.w3.org/2000/svg" xmlns:xlink="http://www.w3.org/1999/xlink" x="0px" y="0px"
	 viewBox="0 0 25 25" enable-background="new 0 0 25 25" xml:space="preserve">
<path fill="#4A4A4A" d="M12.5,24.7c-6.7,0-12.2-5.5-12.2-12.2S5.8,0.3,12.5,0.3s12.2,5.5,12.2,12.2S19.2,24.7,12.5,24.7z M12.5,1.3
	c-6.2,0-11.2,5-11.2,11.2s5,11.2,11.2,11.2s11.2-5,11.2-11.2S18.7,1.3,12.5,1.3z M12.5,20C8.4,20,5,16.6,5,12.5S8.4,5,12.5,5
	S20,8.4,20,12.5S16.6,20,12.5,20z M12.5,6C8.9,6,6,8.9,6,12.5S8.9,19,12.5,19s6.5-2.9,6.5-6.5S16.1,6,12.5,6z M12.5,15.3
	c-1.6,0-2.8-1.3-2.8-2.8s1.3-2.8,2.8-2.8s2.8,1.3,2.8,2.8S14.1,15.3,12.5,15.3z M12.5,10.7c-1,0-1.8,0.8-1.8,1.8s0.8,1.8,1.8,1.8
	s1.8-0.8,1.8-1.8S13.5,10.7,12.5,10.7z"/>
</svg>
