<?xml version="1.0" encoding="utf-8"?>
<!-- Generator: Adobe Illustrator 18.1.1, SVG Export Plug-In . SVG Version: 6.00 Build 0)  -->
<!DOCTYPE svg PUBLIC "-//W3C//DTD SVG 1.1//EN" "http://www.w3.org/Graphics/SVG/1.1/DTD/svg11.dtd">
<svg version="1.1" id="Layer_2" xmlns="http://www.w3.org/2000/svg" xmlns:xlink="http://www.w3.org/1999/xlink" x="0px" y="0px"
	 viewBox="0 0 25 25" enable-background="new 0 0 25 25" xml:space="preserve">
<path fill="#4A4A4A" d="M7.8,22.6c-2.9,0-5.6-0.8-7.8-2.3c0.4,0,0.8,0.1,1.2,0.1c2.4,0,4.6-0.8,6.4-2.2c-2.2,0-4.1-1.5-4.8-3.6
	c0.3,0.1,0.6,0.1,1,0.1c0.5,0,0.9-0.1,1.3-0.2C2.8,14.1,1,12,1,9.6c0,0,0,0,0-0.1c0.7,0.4,1.5,0.6,2.3,0.6C1.9,9.2,1,7.7,1,5.9
	c0-0.9,0.3-1.8,0.7-2.6C4.3,6.4,8,8.4,12.3,8.7c-0.1-0.4-0.1-0.8-0.1-1.2c0-2.8,2.3-5.1,5.1-5.1C18.7,2.4,20.1,3,21,4
	c1.2-0.2,2.3-0.7,3.2-1.2C23.9,3.9,23,4.9,22,5.6c1-0.1,2-0.4,2.9-0.8c-0.7,1-1.6,1.9-2.6,2.6c0,0.2,0,0.4,0,0.7
	C22.4,14.8,17.2,22.6,7.8,22.6"/>
</svg>
