<?xml version="1.0" encoding="utf-8"?>
<!-- Generator: Adobe Illustrator 18.1.1, SVG Export Plug-In . SVG Version: 6.00 Build 0)  -->
<!DOCTYPE svg PUBLIC "-//W3C//DTD SVG 1.1//EN" "http://www.w3.org/Graphics/SVG/1.1/DTD/svg11.dtd">
<svg version="1.1" id="Layer_2" xmlns="http://www.w3.org/2000/svg" xmlns:xlink="http://www.w3.org/1999/xlink" x="0px" y="0px"
	 viewBox="0 0 25 25" enable-background="new 0 0 25 25" xml:space="preserve">
<g>
	<g>
		<path fill="#4A4A4A" d="M13.4,11.3L13.4,11.3C13.4,11.2,13.4,11.2,13.4,11.3L13.4,11.3z M22.8,0H2.2c-1,0-1.8,0.8-1.8,1.8v21.4
			c0,1,0.8,1.8,1.8,1.8h20.5c1,0,1.8-0.8,1.8-1.8V1.8C24.5,0.8,23.7,0,22.8,0z M7.8,20.9H4.1V9.6h3.6V20.9z M5.9,8.1L5.9,8.1
			c-1.2,0-2-0.9-2-1.9C3.9,5,4.7,4.2,6,4.2c1.2,0,2,0.8,2,1.9C8,7.2,7.2,8.1,5.9,8.1z M20.9,20.9h-3.6v-6c0-1.5-0.5-2.5-1.8-2.5
			c-1,0-1.6,0.7-1.9,1.4c-0.1,0.2-0.1,0.6-0.1,0.9v6.3H9.8c0,0,0-10.2,0-11.3h3.6v1.6c0.5-0.8,1.3-1.9,3.3-1.9
			c2.4,0,4.2,1.6,4.2,5.1V20.9z"/>
	</g>
</g>
</svg>
